<svg width="23" height="23" viewBox="0 0 23 23" fill="none" xmlns="http://www.w3.org/2000/svg">
<mask id="path-1-inside-1_116_30" fill="white">
<path d="M23 11.5C23 17.8513 17.8513 23 11.5 23C5.14873 23 0 17.8513 0 11.5C0 5.14873 5.14873 0 11.5 0C17.8513 0 23 5.14873 23 11.5ZM0.855941 11.5C0.855941 17.3786 5.62145 22.1441 11.5 22.1441C17.3786 22.1441 22.1441 17.3786 22.1441 11.5C22.1441 5.62145 17.3786 0.855941 11.5 0.855941C5.62145 0.855941 0.855941 5.62145 0.855941 11.5Z"/>
</mask>
<path d="M23 11.5C23 17.8513 17.8513 23 11.5 23C5.14873 23 0 17.8513 0 11.5C0 5.14873 5.14873 0 11.5 0C17.8513 0 23 5.14873 23 11.5ZM0.855941 11.5C0.855941 17.3786 5.62145 22.1441 11.5 22.1441C17.3786 22.1441 22.1441 17.3786 22.1441 11.5C22.1441 5.62145 17.3786 0.855941 11.5 0.855941C5.62145 0.855941 0.855941 5.62145 0.855941 11.5Z" fill="#EFEFEF" fill-opacity="0.6" stroke="white" stroke-width="2" mask="url(#path-1-inside-1_116_30)"/>
<path d="M11.44 7.98C10.4 7.98 9.56 7.12 9.56 6.08C9.56 5.04 10.4 4.2 11.44 4.2C12.5 4.2 13.34 5.04 13.34 6.08C13.34 7.12 12.5 7.98 11.44 7.98ZM13.08 8.9V19H9.82V9.2L13.08 8.9Z" fill="white"/>
</svg>
